<?xml version="1.0" encoding="UTF-8"?>
<!DOCTYPE svg PUBLIC "-//W3C//DTD SVG 1.1//EN" "http://www.w3.org/Graphics/SVG/1.1/DTD/svg11.dtd">
<!-- Creator: CorelDRAW X7 -->
<svg xmlns="http://www.w3.org/2000/svg" xml:space="preserve" width="379px" height="86px" version="1.1" style="shape-rendering:geometricPrecision; text-rendering:geometricPrecision; image-rendering:optimizeQuality; fill-rule:evenodd; clip-rule:evenodd"
viewBox="0 0 3790000 859986"
 xmlns:xlink="http://www.w3.org/1999/xlink">
 <defs>
  <style type="text/css">
   <![CDATA[
    .fil2 {fill:#0E64A2}
    .fil1 {fill:#212640}
    .fil0 {fill:#54BFCB}
    .fil3 {fill:#212640;fill-rule:nonzero}
   ]]>
  </style>
 </defs>
 <g id="Слой_x0020_1">
  <metadata id="CorelCorpID_0Corel-Layer"/>
  <g id="_1803476091968">
   <path class="fil0" d="M418217 846852c42083,0 82690,-6236 120993,-17799 -2918,874 -5858,1736 -8799,2551 -202430,-21201 -360249,-192851 -360249,-401457 0,-3520 47,-7016 142,-10512l0 -24c-745,-18272 -1099,-38067 -1099,-59409l0 -271383c-103110,76524 -169973,199347 -169973,337867 0,232052 187583,420166 418985,420166zm134883 -22264c7370,-2515 14645,-5232 21826,-8126 -7181,2894 -14468,5611 -21826,8126zm40063 -16027c3945,-1819 7866,-3709 11752,-5646 -3874,1937 -7807,3827 -11752,5646zm16630 -8126c2291,-1181 4547,-2386 6815,-3603 -2256,1217 -4524,2422 -6815,3603zm227315 -683659l0 -110256 -156780 0 0 3189 0 8008 0 11385c58748,16311 112111,48615 156780,87674z"/>
   <path class="fil1" d="M837108 341764l0 -335244 -156780 0 0 3189 0 8008 0 324047 156780 0zm-287020 -335244l-131871 0 -5976 0 0 82c-39118,555 -76949,6485 -112772,17079l0 341623c0,55547 1465,91465 4772,107799 5374,26457 18579,47752 39224,63662 20811,16063 49122,24000 85052,24000 36378,0 63921,-7488 82488,-22654 18579,-15165 29646,-33638 33390,-55689 3720,-22086 5693,-58559 5693,-109594l0 -355111 0 -8008 0 -3189z"/>
   <path class="fil2" d="M530411 831604c97949,-27236 181464,-89244 236516,-171933 4819,-7241 9413,-14622 13783,-22170 -4370,7548 -8964,14941 -13783,22170 -96910,54366 -211312,83149 -316938,71976 -118559,-12555 -239221,-76512 -268052,-207650 -6035,-26008 -9885,-60827 -11633,-104386 -95,3496 -142,7004 -142,10536 0,208606 157819,380256 360249,401457zm250500 -194422c2469,-4287 4866,-8598 7193,-12980 -2327,4370 -4724,8693 -7193,12980z"/>
   <path class="fil1" d="M766927 659671c44398,-66686 70299,-146800 70299,-232985 0,-3024 -47,-6036 -118,-9047l0 -300863c-44669,-39059 -98032,-71363 -156780,-87674l0 325855c0,77434 -3449,132272 -10476,164245 -7028,31961 -19914,58984 -38776,81059 -18720,22087 -43878,39496 -75319,52559 -31594,13063 -72602,19666 -123355,19666 -61228,0 -107634,-7063 -139240,-21319 -31583,-14268 -56587,-32741 -75000,-55548 -18414,-22819 -30414,-46547 -36225,-71622 28831,131138 149493,195095 268052,207650 105626,11173 220028,-17610 316938,-71976zm-467458 -525923c66614,-61771 154075,-109004 250619,-114378l0 353458c0,51023 -1961,87519 -5693,109594 -3721,22051 -14811,40524 -33390,55689 -18567,15166 -46110,22654 -82488,22654 -35930,0 -64241,-7937 -85052,-24000 -20645,-15910 -33850,-37205 -39224,-63662 -3307,-16334 -4772,-52252 -4772,-107799l0 -231556z"/>
   <polygon class="fil3" points="1006750,660403 1006750,11941 1133494,11941 1399621,446517 1399621,11941 1520637,11941 1520637,660403 1389841,660403 1127778,234130 1127778,660403 "/>
   <polygon class="fil3" points="1708421,660403 1708421,11941 1839382,11941 1839382,660403 "/>
   <path class="fil3" d="M1978953 450284l127347 -12685c7677,42721 23019,73961 46358,94040 23327,20079 54791,30047 94382,30047 41847,0 73453,-8917 94677,-26716 21237,-17811 31914,-38646 31914,-62493 0,-15401 -4524,-28382 -13394,-39248 -8894,-10712 -24543,-20079 -46819,-27921 -15201,-5433 -49819,-14799 -104008,-28382 -69697,-17504 -118618,-38941 -146764,-64453 -39591,-35776 -59303,-79394 -59303,-130866 0,-33059 9330,-64146 27850,-92989 18662,-28819 45449,-50716 80528,-65799 35067,-15095 77221,-22642 126898,-22642 80823,0 141780,17965 182575,54036 40949,36071 62315,84071 64429,144295l-130961 4536c-5563,-33508 -17456,-57508 -35681,-72154 -18212,-14646 -45602,-22039 -82028,-22039 -37630,0 -67134,7854 -88358,23551 -13689,10110 -20622,23551 -20622,40453 0,15389 6472,28523 19417,39390 16406,14043 56304,28535 119670,43618 63366,14953 110185,30649 140433,46653 30402,16146 54201,38032 71363,65953 17161,27922 25724,62339 25724,103241 0,37134 -10228,72012 -30850,104468 -20623,32445 -49678,56599 -87308,72296 -37630,15850 -84590,23705 -140740,23705 -81733,0 -144497,-18874 -188304,-56764 -43795,-37737 -69838,-92823 -78425,-165131z"/>
   <path class="fil3" d="M2661655 660403l0 -648462 209386 0c79323,0 130949,3177 155020,9661 37040,9815 68044,30945 93036,63544 24992,32610 37488,74717 37488,126343 0,39850 -7240,73216 -21531,100382 -14445,27177 -32670,48449 -54792,64004 -22122,15390 -44705,25653 -67583,30638 -31157,6189 -76157,9354 -135177,9354l-84898 0 0 244536 -130949 0zm130949 -538867l0 184748 71209 0c51319,0 85500,-3472 102803,-10264 17304,-6791 30863,-17362 40654,-31996 9780,-14492 14740,-31252 14740,-50563 0,-23705 -6921,-43181 -20622,-58571 -13842,-15402 -31157,-25063 -52382,-28984 -15496,-2870 -46665,-4370 -93626,-4370l-62776 0z"/>
   <path class="fil3" d="M3790768 660403l-141048 0 -55854 -147626 -259347 0 -53729 147626 -138484 0 251067 -648462 138331 0 259064 648462zm-239339 -257209l-89859 -240001 -87307 240001 177166 0z"/>
   <path class="fil3" d="M1014711 837604l36437 -95221 13807 0 38658 95221 -14304 0 -10972 -28854 -39981 0 -10299 28854 -13346 0zm27319 -39094l32362 0 -9898 -26410c-2976,-8020 -5232,-14634 -6803,-19878 -1299,6201 -3047,12307 -5244,18331l-10417 27957zm131421 -56127l12579 0 0 41752c5728,0 9780,-1122 12106,-3366 2327,-2244 5292,-7594 8929,-16110 2634,-6272 4796,-10689 6508,-13252 1701,-2598 4134,-4760 7300,-6520 3141,-1748 6626,-2633 10441,-2633 4818,0 7370,47 7641,129l0 10902c-448,0 -1287,-24 -2527,-59 -1394,-47 -2221,-71 -2528,-71 -4004,0 -6992,980 -8941,2929 -1984,1949 -4240,6118 -6803,12485 -3189,8055 -5882,13157 -8090,15259 -2186,2091 -4843,3780 -7890,5044 6118,1677 12177,7370 18141,17043l19560 31689 -15591 0 -15933 -25795c-4370,-7158 -8008,-12083 -10937,-14752 -2941,-2670 -6721,-4004 -11386,-4004l0 44551 -12579 0 0 -95221zm126154 95221l36425 -95221 13819 0 38646 95221 -14291 0 -10996 -28854 -39969 0 -10311 28854 -13323 0zm27319 -39094l32350 0 -9897 -26410c-2988,-8020 -5232,-14634 -6803,-19878 -1311,6201 -3048,12307 -5244,18331l-10406 27957zm144154 -56127l57803 0 0 84048 8504 0 0 33378 -11138 0 0 -22205 -62870 0 0 22205 -11126 0 0 -33378 7287 0c7689,-11575 11540,-34949 11540,-70134l0 -13914zm45224 11162l-33165 0 0 4878c0,8126 -732,19228 -2185,33307 -1453,14067 -4299,25630 -8551,34701l43901 0 0 -72886zm95812 84059l0 -95221 68551 0 0 11162 -55949 0 0 29268 52370 0 0 11161 -52370 0 0 32457 58205 0 0 11173 -70807 0zm147508 0l0 -95221 18827 0 22452 67406c2091,6272 3579,10961 4536,14091 1086,-3461 2787,-8552 5090,-15272l22855 -66225 16807 0 0 95221 -12047 0 0 -79665 -27733 79665 -11315 0 -27401 -81118 0 81118 -12071 0zm170587 -95221l11421 0 0 75402 50516 -75402 12472 0 0 95221 -11421 0 0 -75201 -50409 75201 -12579 0 0 -95221zm229713 95221l0 -95221 -42095 0c-8456,0 -14870,863 -19275,2575 -4394,1713 -7914,4713 -10536,9036 -2634,4323 -3957,9118 -3957,14350 0,6756 2197,12449 6544,17079 4346,4630 11079,7571 20173,8823 -3331,1606 -5846,3201 -7583,4748 -3661,3366 -7134,7594 -10382,12673l-16429 25937 15697 0 12567 -19819c3638,-5728 6662,-10098 9036,-13134 2374,-3047 4500,-5149 6378,-6366 1854,-1205 3791,-2043 5728,-2527 1417,-296 3744,-437 6992,-437l14528 0 0 42283 12614 0zm-12614 -53197l-26953 0c-5764,0 -10205,-602 -13441,-1795 -3225,-1169 -5681,-3083 -7335,-5717 -1677,-2610 -2527,-5456 -2527,-8539 0,-4500 1606,-8221 4854,-11114 3260,-2918 8386,-4347 15390,-4347l30012 0 0 31512zm197374 19795l12614 3189c-2634,10359 -7370,18213 -14208,23646 -6827,5433 -15178,8162 -25052,8162 -10204,0 -18531,-2079 -24933,-6272 -6413,-4169 -11268,-10217 -14598,-18130 -3355,-7937 -5032,-16429 -5032,-25512 0,-9909 1878,-18555 5670,-25937 3779,-7370 9141,-12980 16098,-16819 6969,-3838 14634,-5740 22984,-5740 9520,0 17481,2409 23941,7264 6485,4854 10996,11657 13536,20433l-12343 2941c-2197,-6921 -5397,-11977 -9567,-15130 -4169,-3166 -9437,-4736 -15779,-4736 -7276,0 -13370,1759 -18260,5256 -4890,3507 -8339,8220 -10299,14114 -1985,5917 -2989,12023 -2989,18283 0,8091 1170,15166 3520,21189 2339,6059 5988,10548 10937,13548 4961,2988 10299,4476 16075,4476 7028,0 12957,-2043 17811,-6106 4866,-4063 8150,-10099 9874,-18119zm87851 -61819l74539 0 0 95221 -12602 0 0 -84059 -49323 0 0 84059 -12614 0 0 -95221zm144378 95221l36425 -95221 13807 0 38658 95221 -14303 0 -10985 -28854 -39968 0 -10299 28854 -13335 0zm27307 -39094l32362 0 -9897 -26410c-2989,-8020 -5233,-14634 -6804,-19878 -1311,6201 -3047,12307 -5244,18331l-10417 27957zm359658 39094l0 -95221 35634 0c7252,0 13075,957 17469,2882 4370,1937 7795,4890 10275,8918 2492,3980 3733,8173 3733,12567 0,4039 -1099,7878 -3307,11468 -2186,3591 -5493,6496 -9922,8717 5729,1689 10146,4571 13229,8645 3094,4052 4641,8859 4641,14410 0,4476 -956,8622 -2834,12449 -1878,3838 -4193,6779 -6957,8858 -2776,2067 -6248,3638 -10394,4713 -4169,1063 -9283,1594 -15342,1594l-36225 0zm12603 -55193l20527 0c5575,0 9567,-378 11988,-1110 3201,-957 5611,-2551 7229,-4760 1618,-2220 2421,-4996 2421,-8339 0,-3165 -756,-5964 -2256,-8350 -1512,-2409 -3685,-4087 -6484,-4961 -2811,-897 -7642,-1346 -14445,-1346l-18980 0 0 28866zm0 44020l23645 0c4075,0 6922,-154 8575,-461 2882,-508 5315,-1382 7264,-2610 1925,-1205 3520,-2976 4783,-5303 1252,-2327 1878,-5020 1878,-8044 0,-3566 -909,-6649 -2740,-9283 -1807,-2646 -4323,-4488 -7547,-5551 -3213,-1063 -7854,-1595 -13890,-1595l-21968 0 0 32847zm136252 11173l0 -95221 68551 0 0 11162 -55972 0 0 29268 52393 0 0 11161 -52393 0 0 32457 58228 0 0 11173 -70807 0zm154795 -95221l59292 0 0 95221 -12614 0 0 -84059 -34075 0 0 49063c0,9980 -461,17268 -1394,21898 -933,4653 -2894,8244 -5882,10830 -2988,2575 -6791,3863 -11350,3863 -2788,0 -6118,-579 -10016,-1737l2244 -11161c2067,1063 3839,1594 5292,1594 2822,0 4960,-1063 6389,-3212 1406,-2162 2114,-7205 2114,-15177l0 -67123zm140139 95221l0 -95221 12590 0 0 39225 49075 0 0 -39225 12591 0 0 95221 -12591 0 0 -44811 -49075 0 0 44811 -12590 0zm155079 0l0 -95221 68563 0 0 11162 -55961 0 0 29268 52394 0 0 11161 -52394 0 0 32457 58205 0 0 11173 -70807 0zm215410 -33402l12614 3189c-2634,10359 -7382,18213 -14209,23646 -6815,5433 -15177,8162 -25063,8162 -10193,0 -18520,-2079 -24933,-6272 -6390,-4169 -11256,-10217 -14599,-18130 -3342,-7937 -5019,-16429 -5019,-25512 0,-9909 1878,-18555 5669,-25937 3780,-7370 9142,-12980 16098,-16819 6969,-3838 14634,-5740 22985,-5740 9508,0 17492,2409 23941,7264 6484,4854 10984,11657 13535,20433l-12342 2941c-2185,-6921 -5386,-11977 -9567,-15130 -4181,-3166 -9437,-4736 -15792,-4736 -7263,0 -13358,1759 -18248,5256 -4889,3507 -8326,8220 -10287,14114 -1996,5917 -2988,12023 -2988,18283 0,8091 1169,15166 3519,21189 2327,6059 5977,10548 10926,13548 4948,2988 10299,4476 16086,4476 7016,0 12933,-2043 17799,-6106 4867,-4063 8150,-10099 9875,-18119zm-922526 21851l-11032 14079c-5397,-2646 -10594,-6284 -15555,-10914 -3826,3473 -7913,6012 -12236,7654 -4299,1630 -9425,2457 -15413,2457 -11788,0 -20670,-3355 -26646,-10016 -4606,-5138 -6910,-11079 -6910,-17800 0,-6118 1819,-11622 5469,-16500 3614,-4854 9047,-9094 16287,-12696 -3259,-3851 -5704,-7524 -7346,-11032 -1665,-3496 -2480,-6803 -2480,-9921 0,-5776 2303,-10677 6897,-14681 4583,-4016 11150,-6036 19630,-6036 8185,0 14599,2114 19205,6307 4618,4205 6921,9331 6921,15402 0,3862 -1134,7512 -3401,10972 -2292,3461 -6851,7382 -13748,11752l13051 17611c1559,-2741 2882,-6355 4004,-10796l16488 3709c-1630,5846 -3071,10146 -4276,12850 -1193,2705 -2504,4985 -3885,6804 2019,1901 4653,3980 7878,6271 3224,2280 5586,3792 7098,4524zm-49536 -51862l4890 -3792c3603,-2811 5398,-5610 5398,-8386 0,-2338 -862,-4346 -2622,-5976 -1713,-1654 -4063,-2492 -7028,-2492 -2870,0 -5126,744 -6767,2185 -1619,1464 -2422,3142 -2422,5043 0,2268 1359,4996 4099,8209l4452 5209zm-7110 19866c-4157,2126 -7275,4689 -9354,7689 -2055,2988 -3106,6047 -3106,9142 0,3944 1287,7192 3862,9673 2539,2492 5964,3744 10275,3744 2823,0 5563,-555 8174,-1677 2633,-1146 5480,-3000 8586,-5611l-18437 -22960z"/>
   <path class="fil2" d="M1006762 660391l0 -103677c37736,-15862 78449,-32835 121040,-50351l0 154028 -121040 0zm368918 -253075l23988 39165 0 -47433c31831,-10476 73158,-22299 121040,-34299l0 295642 -130819 0 -128115 -208382c34394,-13736 69213,-27473 103985,-40973 3106,-1204 6460,-2445 9921,-3720z"/>
   <path class="fil2" d="M1708433 660391l0 -336166c42460,-7795 86480,-14953 130961,-21047l0 357213 -130961 0z"/>
   <path class="fil2" d="M1978953 450261l127358 -12685c7678,42732 23032,73972 46371,94051 23326,20079 54791,30036 94382,30036 41858,0 73464,-8906 94701,-26717 21224,-17811 31913,-38646 31913,-62492 0,-15402 -4523,-28382 -13405,-39248 -8882,-10725 -24544,-20079 -46819,-27934 -15201,-5433 -49819,-14787 -104020,-28370 -69697,-17515 -118630,-38952 -146776,-64464 -9744,-8811 -18284,-18095 -25618,-27851 472725,-20917 512493,295501 349430,363875 -37654,15791 -84603,23705 -140753,23705 -81744,0 -144520,-18862 -188327,-56752 -43807,-37748 -69850,-92847 -78437,-165154z"/>
  </g>
 </g>
</svg>
