<?xml version="1.0" encoding="UTF-8"?>
<!DOCTYPE svg PUBLIC "-//W3C//DTD SVG 1.1//EN" "http://www.w3.org/Graphics/SVG/1.1/DTD/svg11.dtd">
<!-- Creator: CorelDRAW X7 -->
<svg xmlns="http://www.w3.org/2000/svg" xml:space="preserve" width="129px" height="126px" version="1.1" style="shape-rendering:geometricPrecision; text-rendering:geometricPrecision; image-rendering:optimizeQuality; fill-rule:evenodd; clip-rule:evenodd"
viewBox="0 0 1290000 1260000"
 xmlns:xlink="http://www.w3.org/1999/xlink">
 <defs>
  <style type="text/css">
   <![CDATA[
    .fil0 {fill:#252F52;fill-rule:nonzero}
   ]]>
  </style>
 </defs>
 <g id="Слой_x0020_1">
  <metadata id="CorelCorpID_0Corel-Layer"/>
  <g id="_1803487344416">
   <path class="fil0" d="M633886 947480c0,-171260 44799,-331323 133712,-481500 88264,-150177 223961,-304311 407067,-464374l115276 127784c-194976,218681 -293114,420236 -293114,605988 110657,43476 165992,124500 165992,243059 0,74433 -23055,139642 -69165,195626 -46772,55984 -115276,84319 -206823,84319 -74433,0 -135036,-30307 -182457,-90910 -46772,-60590 -70488,-133712 -70488,-219992z"/>
   <path class="fil0" d="M47 947480c0,-171260 44799,-331323 133713,-481500 88264,-150177 223960,-304311 407067,-464374l115275 127784c-194976,218681 -293114,420236 -293114,605988 110658,43476 165992,124500 165992,243059 0,74433 -23055,139642 -69165,195626 -46772,55984 -115276,84319 -206823,84319 -74433,0 -135035,-30307 -182457,-90910 -46771,-60590 -70488,-133712 -70488,-219992z"/>
  </g>
 </g>
</svg>
